<?xml version="1.0" encoding="UTF-8" standalone="no"?>
<svg width="1000" height="700" viewBox="0 0 1000 700"
     xmlns="http://www.w3.org/2000/svg"
     font-family="Arial" font-size="14">

<defs>
  <marker id="arrow" markerWidth="10" markerHeight="10"
          refX="10" refY="3" orient="auto">
    <path d="M0,0 L10,3 L0,6 Z" fill="black"/>
  </marker>
</defs>

<rect x="410" y="20" width="180" height="60" rx="15" ry="15" fill="#eef2f7" stroke="black"/>
<rect x="425" y="35" width="20" height="25" stroke="black" fill="white"/>
<line x1="428" y1="42" x2="442" y2="42" stroke="black"/>
<line x1="428" y1="47" x2="442" y2="47" stroke="black"/>
<line x1="428" y1="52" x2="442" y2="52" stroke="black"/>
<text x="520" y="55" text-anchor="middle">Input Text x</text>

<rect x="140" y="140" width="200" height="70" rx="15" ry="15" fill="#e6f2ff" stroke="black"/>
<rect x="155" y="158" width="22" height="22" stroke="black" fill="white"/>
<line x1="159" y1="165" x2="173" y2="165" stroke="black"/>
<line x1="159" y1="170" x2="173" y2="170" stroke="black"/>
<text x="240" y="170" text-anchor="middle">Prompt Template</text>
<text x="240" y="188" text-anchor="middle">p(x)=T(x,𝒴,ℰ)</text>

<rect x="140" y="250" width="200" height="70" rx="15" ry="15" fill="#e6f2ff" stroke="black"/>
<circle cx="165" cy="285" r="10" stroke="black" fill="white"/>
<text x="240" y="292" text-anchor="middle">LLM f_LLM</text>

<rect x="140" y="360" width="200" height="70" rx="15" ry="15" fill="#ffffff" stroke="black"/>
<text x="165" y="395" font-size="12">0 1</text>
<text x="240" y="395" text-anchor="middle">z ∈ {0,1}^K</text>

<rect x="660" y="140" width="200" height="70" rx="15" ry="15" fill="#e8ffe8" stroke="black"/>
<circle cx="680" cy="175" r="10" stroke="black" fill="white"/>
<circle cx="692" cy="175" r="10" stroke="black" fill="white"/>
<text x="760" y="170" text-anchor="middle">RoBERTa Encoder</text>
<text x="760" y="188" text-anchor="middle">h=f_RB(x)</text>

<rect x="660" y="250" width="200" height="70" rx="15" ry="15" fill="#ffffff" stroke="black"/>
<line x1="670" y1="285" x2="700" y2="285" stroke="black"/>
<line x1="670" y1="290" x2="695" y2="290" stroke="black"/>
<line x1="670" y1="295" x2="690" y2="295" stroke="black"/>
<text x="760" y="292" text-anchor="middle">Embedding h ∈ ℝ^768</text>

<rect x="410" y="430" width="180" height="70" rx="15" ry="15" fill="#fff5cc" stroke="black"/>
<line x1="430" y1="455" x2="445" y2="470" stroke="black"/>
<line x1="460" y1="455" x2="445" y2="470" stroke="black"/>
<text x="500" y="460" text-anchor="middle">Feature Fusion</text>
<text x="500" y="480" text-anchor="middle">u = [h ; z]</text>

<rect x="410" y="530" width="180" height="70" rx="15" ry="15" fill="#ffe6e6" stroke="black"/>
<circle cx="430" cy="555" r="4" fill="black"/>
<circle cx="445" cy="565" r="4" fill="black"/>
<circle cx="460" cy="555" r="4" fill="black"/>
<line x1="430" y1="555" x2="445" y2="565" stroke="black"/>
<line x1="445" y1="565" x2="460" y2="555" stroke="black"/>
<text x="500" y="565" text-anchor="middle">MLP</text>
<text x="500" y="585" text-anchor="middle">ŷ = f_MLP(u)</text>

<rect x="410" y="620" width="180" height="60" rx="15" ry="15" fill="#eeeeee" stroke="black"/>
<rect x="425" y="640" width="18" height="12" stroke="black" fill="white"/>
<text x="500" y="655" text-anchor="middle">Final Labels ŷ</text>

<line x1="500" y1="80" x2="240" y2="140" stroke="black" marker-end="url(#arrow)"/>
<line x1="500" y1="80" x2="760" y2="140" stroke="black" marker-end="url(#arrow)"/>

<line x1="240" y1="210" x2="240" y2="250" stroke="black" marker-end="url(#arrow)"/>
<line x1="240" y1="320" x2="240" y2="360" stroke="black" marker-end="url(#arrow)"/>

<line x1="760" y1="210" x2="760" y2="250" stroke="black" marker-end="url(#arrow)"/>

<line x1="240" y1="430" x2="410" y2="465" stroke="black" marker-end="url(#arrow)"/>
<line x1="760" y1="320" x2="590" y2="465" stroke="black" marker-end="url(#arrow)"/>

<line x1="500" y1="500" x2="500" y2="530" stroke="black" marker-end="url(#arrow)"/>
<line x1="500" y1="600" x2="500" y2="620" stroke="black" marker-end="url(#arrow)"/>

</svg>
